<svg width="57" height="50" viewBox="0 0 57 50" fill="none" xmlns="http://www.w3.org/2000/svg">
<line x1="8.80702" y1="9.12691" x2="14.2715" y2="16.7772" stroke="url(#paint0_linear_7_369)" stroke-width="1.5"/>
<line x1="3.81976" y1="14.0536" x2="13.1094" y2="17.6055" stroke="url(#paint1_linear_7_369)" stroke-width="1.5"/>
<line x1="17.0336" y1="18.7448" x2="28.2358" y2="25.029" stroke="url(#paint2_linear_7_369)" stroke-width="1.5"/>
<line x1="27.2391" y1="15.9777" x2="28.8784" y2="24.4476" stroke="url(#paint3_linear_7_369)" stroke-width="1.5"/>
<line x1="25.8433" y1="16.0332" x2="17.1002" y2="17.9458" stroke="url(#paint4_linear_7_369)" stroke-width="1.5"/>
<line x1="34.2443" y1="17.3943" x2="27.6869" y2="15.7549" stroke="url(#paint5_linear_7_369)" stroke-width="1.5"/>
<line x1="35.306" y1="18.7471" x2="30.9344" y2="24.7581" stroke="url(#paint6_linear_7_369)" stroke-width="1.5"/>
<line x1="39.8355" y1="38.4259" x2="31.0923" y2="26.6773" stroke="url(#paint7_linear_7_369)" stroke-width="1.5"/>
<path d="M35.929 45.9016L30.4816 27.4396" stroke="url(#paint8_linear_7_369)" stroke-width="1.5"/>
<line x1="26.4328" y1="4.07694" x2="26.706" y2="13.6398" stroke="url(#paint9_linear_7_369)" stroke-width="1.5"/>
<line x1="27.1268" y1="3.13589" x2="35.3235" y2="15.431" stroke="url(#paint10_linear_7_369)" stroke-width="1.5"/>
<line x1="27.0524" y1="3.12795" x2="42.8994" y2="9.4121" stroke="url(#paint11_linear_7_369)" stroke-width="1.5"/>
<line x1="37.4616" y1="16.6694" x2="42.926" y2="11.4781" stroke="url(#paint12_linear_7_369)" stroke-width="1.5"/>
<line x1="46.4481" y1="10.4522" x2="51.3661" y2="10.4522" stroke="url(#paint13_linear_7_369)" stroke-width="1.5"/>
<line x1="44.9995" y1="12.7033" x2="47.4585" y2="25.8181" stroke="url(#paint14_linear_7_369)" stroke-width="1.5"/>
<line x1="37.4071" y1="18.3138" x2="46.1503" y2="26.7837" stroke="url(#paint15_linear_7_369)" stroke-width="1.5"/>
<line x1="36.2503" y1="18.9586" x2="40.6218" y2="38.0843" stroke="url(#paint16_linear_7_369)" stroke-width="1.5"/>
<path d="M52.0492 10.929L48.2114 25.7842" stroke="url(#paint17_linear_7_369)" stroke-width="1.5"/>
<line x1="4.12245" y1="27.8771" x2="13.4121" y2="18.8607" stroke="url(#paint18_linear_7_369)" stroke-width="1.5"/>
<line x1="14.9678" y1="16.498" x2="24.5306" y2="3.38326" stroke="url(#paint19_linear_7_369)" stroke-width="1.5"/>
<path d="M3.82522 30.6011C17.4863 43.7159 31.2841 31.9672 36.0656 46.1749" stroke="url(#paint20_linear_7_369)" stroke-width="1.5"/>
<path d="M1.50259 15.5676C-0.273229 22.9508 2.04904 27.5894 2.04904 27.5894" stroke="url(#paint21_linear_7_369)" stroke-width="1.5"/>
<path d="M8.74317 6.42077C8.74317 6.42077 14.5681 3.32242 24.0542 2.36302" stroke="url(#paint22_linear_7_369)" stroke-width="1.5"/>
<line x1="46.862" y1="28.7159" x2="43.0368" y2="37.4591" stroke="url(#paint23_linear_7_369)" stroke-width="1.5"/>
<line y1="-0.75" x2="3.11523" y2="-0.75" transform="matrix(0.789352 0.613941 -0.61394 0.789353 48.9071 28.4153)" stroke="url(#paint24_linear_7_369)" stroke-width="1.5"/>
<path d="M51.6393 32.9235C51.6393 32.9235 48.7705 36.2021 43.7952 38.3625" stroke="url(#paint25_linear_7_369)" stroke-width="1.5"/>
<path d="M53.2787 11.2022C54.5756 12.9769 58.4605 19.5196 53.8254 30.0626" stroke="url(#paint26_linear_7_369)" stroke-width="1.5"/>
<path d="M6.01463 8.77206C4.23497 10.2459 3.00545 12.2951 3.00545 12.2951" stroke="url(#paint27_linear_7_369)" stroke-width="1.5"/>
<path d="M27.8688 2.18579C45.535 2.02014 51.0933 8.19684 51.0933 8.19684" stroke="url(#paint28_linear_7_369)" stroke-width="1.5"/>
<circle cx="2.18579" cy="13.9344" r="1.68579" stroke="url(#paint29_linear_7_369)"/>
<circle cx="7.37705" cy="7.65027" r="1.68579" stroke="url(#paint30_linear_7_369)"/>
<path d="M15.0271 16.6202C15.958 16.6202 16.7135 17.3748 16.7136 18.3058C16.7136 19.2368 15.9581 19.9923 15.0271 19.9923C14.0961 19.9922 13.3415 19.2367 13.3415 18.3058C13.3417 17.3749 14.0962 16.6203 15.0271 16.6202Z" stroke="url(#paint31_linear_7_369)"/>
<path d="M25.956 0.5C26.887 0.5 27.6424 1.25462 27.6426 2.18555C27.6426 3.11658 26.8871 3.87207 25.956 3.87207C25.0251 3.87194 24.2705 3.1165 24.2705 2.18555C24.2706 1.2547 25.0252 0.500132 25.956 0.5Z" stroke="url(#paint32_linear_7_369)"/>
<path d="M52.4588 7.87705C53.3897 7.87705 54.1452 8.63167 54.1453 9.5626C54.1453 10.4936 53.3898 11.2491 52.4588 11.2491C51.5278 11.249 50.7732 10.4936 50.7732 9.5626C50.7734 8.63176 51.5279 7.87719 52.4588 7.87705Z" stroke="url(#paint33_linear_7_369)"/>
<path d="M53.0052 29.735C53.9362 29.735 54.6916 30.4896 54.6917 31.4205C54.6917 32.3516 53.9363 33.107 53.0052 33.107C52.0743 33.1069 51.3197 32.3515 51.3197 31.4205C51.3198 30.4897 52.0744 29.7351 53.0052 29.735Z" stroke="url(#paint34_linear_7_369)"/>
<path d="M36.0653 15.5273C36.9963 15.5273 37.7517 16.2819 37.7518 17.2129C37.7518 18.1439 36.9964 18.8994 36.0653 18.8994C35.1344 18.8993 34.3798 18.1438 34.3798 17.2129C34.3799 16.282 35.1345 15.5275 36.0653 15.5273Z" stroke="url(#paint35_linear_7_369)"/>
<circle cx="41.8033" cy="39.071" r="1.68579" stroke="url(#paint36_linear_7_369)"/>
<circle cx="36.0656" cy="47.8142" r="1.5" stroke="url(#paint37_linear_7_369)" stroke-width="1.37159"/>
<circle cx="29.7814" cy="25.6831" r="1.68579" stroke="url(#paint38_linear_7_369)"/>
<circle cx="3.00546" cy="29.235" r="1.68579" stroke="url(#paint39_linear_7_369)"/>
<mask id="path-41-inside-1_7_369" fill="white">
<ellipse cx="26.5027" cy="15.0273" rx="2.18579" ry="2.18579"/>
</mask>
<ellipse cx="26.5027" cy="15.0273" rx="2.18579" ry="2.18579" fill="url(#paint40_linear_7_369)"/>
<path d="M28.6885 15.0273H25.6885C25.6885 14.5776 26.0531 14.2131 26.5027 14.2131V17.2131V20.2131C29.3668 20.2131 31.6885 17.8914 31.6885 15.0273H28.6885ZM26.5027 17.2131V14.2131C26.9524 14.2131 27.3169 14.5776 27.3169 15.0273H24.3169H21.3169C21.3169 17.8914 23.6387 20.2131 26.5027 20.2131V17.2131ZM24.3169 15.0273H27.3169C27.3169 15.477 26.9524 15.8415 26.5027 15.8415V12.8415V9.84153C23.6387 9.84153 21.3169 12.1633 21.3169 15.0273H24.3169ZM26.5027 12.8415V15.8415C26.0531 15.8415 25.6885 15.477 25.6885 15.0273H28.6885H31.6885C31.6885 12.1633 29.3668 9.84153 26.5027 9.84153V12.8415Z" fill="url(#paint41_linear_7_369)" mask="url(#path-41-inside-1_7_369)"/>
<mask id="path-43-inside-2_7_369" fill="white">
<ellipse cx="44.5355" cy="10.6557" rx="2.18579" ry="2.18579"/>
</mask>
<ellipse cx="44.5355" cy="10.6557" rx="2.18579" ry="2.18579" fill="url(#paint42_linear_7_369)"/>
<path d="M46.7213 10.6557H43.7213C43.7213 10.2061 44.0858 9.84153 44.5355 9.84153V12.8415V15.8415C47.3995 15.8415 49.7213 13.5198 49.7213 10.6557H46.7213ZM44.5355 12.8415V9.84153C44.9852 9.84153 45.3497 10.2061 45.3497 10.6557H42.3497H39.3497C39.3497 13.5198 41.6715 15.8415 44.5355 15.8415V12.8415ZM42.3497 10.6557H45.3497C45.3497 11.1054 44.9852 11.4699 44.5355 11.4699V8.46995V5.46995C41.6715 5.46995 39.3497 7.79171 39.3497 10.6557H42.3497ZM44.5355 8.46995V11.4699C44.0858 11.4699 43.7213 11.1054 43.7213 10.6557H46.7213H49.7213C49.7213 7.79171 47.3995 5.46995 44.5355 5.46995V8.46995Z" fill="url(#paint43_linear_7_369)" mask="url(#path-43-inside-2_7_369)"/>
<mask id="path-45-inside-3_7_369" fill="white">
<ellipse cx="47.541" cy="27.0492" rx="2.18579" ry="2.18579"/>
</mask>
<ellipse cx="47.541" cy="27.0492" rx="2.18579" ry="2.18579" fill="url(#paint44_linear_7_369)"/>
<path d="M49.7268 27.0492H46.7268C46.7268 26.5995 47.0913 26.235 47.541 26.235V29.235V32.235C50.405 32.235 52.7268 29.9132 52.7268 27.0492H49.7268ZM47.541 29.235V26.235C47.9907 26.235 48.3552 26.5995 48.3552 27.0492H45.3552H42.3552C42.3552 29.9132 44.677 32.235 47.541 32.235V29.235ZM45.3552 27.0492H48.3552C48.3552 27.4989 47.9907 27.8634 47.541 27.8634V24.8634V21.8634C44.677 21.8634 42.3552 24.1851 42.3552 27.0492H45.3552ZM47.541 24.8634V27.8634C47.0913 27.8634 46.7268 27.4989 46.7268 27.0492H49.7268H52.7268C52.7268 24.1851 50.405 21.8634 47.541 21.8634V24.8634Z" fill="url(#paint45_linear_7_369)" mask="url(#path-45-inside-3_7_369)"/>
<defs>
<linearGradient id="paint0_linear_7_369" x1="10.929" y1="13.388" x2="10.1152" y2="13.9692" gradientUnits="userSpaceOnUse">
<stop stop-color="#1E19B1"/>
<stop offset="0.480769" stop-color="#3E76CC"/>
<stop offset="1" stop-color="#0D0A4B"/>
</linearGradient>
<linearGradient id="paint1_linear_7_369" x1="8.19672" y1="16.5301" x2="7.83958" y2="17.4641" gradientUnits="userSpaceOnUse">
<stop stop-color="#1E19B1"/>
<stop offset="0.480769" stop-color="#3E76CC"/>
<stop offset="1" stop-color="#0D0A4B"/>
</linearGradient>
<linearGradient id="paint2_linear_7_369" x1="22.2677" y1="22.541" x2="21.7785" y2="23.4131" gradientUnits="userSpaceOnUse">
<stop stop-color="#1E19B1"/>
<stop offset="0.480769" stop-color="#3E76CC"/>
<stop offset="1" stop-color="#0D0A4B"/>
</linearGradient>
<linearGradient id="paint3_linear_7_369" x1="27.3224" y1="20.3552" x2="26.3406" y2="20.5452" gradientUnits="userSpaceOnUse">
<stop stop-color="#1E19B1"/>
<stop offset="0.480769" stop-color="#3E76CC"/>
<stop offset="1" stop-color="#0D0A4B"/>
</linearGradient>
<linearGradient id="paint4_linear_7_369" x1="21.3115" y1="16.2568" x2="21.0978" y2="15.2799" gradientUnits="userSpaceOnUse">
<stop stop-color="#1E19B1"/>
<stop offset="0.480769" stop-color="#3E76CC"/>
<stop offset="1" stop-color="#0D0A4B"/>
</linearGradient>
<linearGradient id="paint5_linear_7_369" x1="31.1475" y1="15.847" x2="31.3901" y2="14.8768" gradientUnits="userSpaceOnUse">
<stop stop-color="#1E19B1"/>
<stop offset="0.480769" stop-color="#3E76CC"/>
<stop offset="1" stop-color="#0D0A4B"/>
</linearGradient>
<linearGradient id="paint6_linear_7_369" x1="32.5137" y1="21.3115" x2="31.7049" y2="20.7233" gradientUnits="userSpaceOnUse">
<stop stop-color="#1E19B1"/>
<stop offset="0.480769" stop-color="#3E76CC"/>
<stop offset="1" stop-color="#0D0A4B"/>
</linearGradient>
<linearGradient id="paint7_linear_7_369" x1="36.0656" y1="32.1038" x2="36.8678" y2="31.5068" gradientUnits="userSpaceOnUse">
<stop stop-color="#1E19B1"/>
<stop offset="0.480769" stop-color="#3E76CC"/>
<stop offset="1" stop-color="#0D0A4B"/>
</linearGradient>
<linearGradient id="paint8_linear_7_369" x1="33.176" y1="36.6794" x2="33.2345" y2="36.6619" gradientUnits="userSpaceOnUse">
<stop stop-color="#1E19B1"/>
<stop offset="0.480769" stop-color="#3E76CC"/>
<stop offset="1" stop-color="#0D0A4B"/>
</linearGradient>
<linearGradient id="paint9_linear_7_369" x1="25.8197" y1="8.87978" x2="24.8201" y2="8.90834" gradientUnits="userSpaceOnUse">
<stop stop-color="#1E19B1"/>
<stop offset="0.480769" stop-color="#3E76CC"/>
<stop offset="1" stop-color="#0D0A4B"/>
</linearGradient>
<linearGradient id="paint10_linear_7_369" x1="30.6011" y1="9.69945" x2="29.769" y2="10.2542" gradientUnits="userSpaceOnUse">
<stop stop-color="#1E19B1"/>
<stop offset="0.480769" stop-color="#3E76CC"/>
<stop offset="1" stop-color="#0D0A4B"/>
</linearGradient>
<linearGradient id="paint11_linear_7_369" x1="34.6995" y1="6.96721" x2="34.3308" y2="7.89679" gradientUnits="userSpaceOnUse">
<stop stop-color="#1E19B1"/>
<stop offset="0.480769" stop-color="#3E76CC"/>
<stop offset="1" stop-color="#0D0A4B"/>
</linearGradient>
<linearGradient id="paint12_linear_7_369" x1="40.7104" y1="14.6175" x2="41.3991" y2="15.3425" gradientUnits="userSpaceOnUse">
<stop stop-color="#1E19B1"/>
<stop offset="0.480769" stop-color="#3E76CC"/>
<stop offset="1" stop-color="#0D0A4B"/>
</linearGradient>
<linearGradient id="paint13_linear_7_369" x1="48.9071" y1="11.2022" x2="48.9071" y2="12.2022" gradientUnits="userSpaceOnUse">
<stop stop-color="#1E19B1"/>
<stop offset="0.480769" stop-color="#3E76CC"/>
<stop offset="1" stop-color="#0D0A4B"/>
</linearGradient>
<linearGradient id="paint14_linear_7_369" x1="45.4918" y1="19.3989" x2="44.5089" y2="19.5832" gradientUnits="userSpaceOnUse">
<stop stop-color="#1E19B1"/>
<stop offset="0.480769" stop-color="#3E76CC"/>
<stop offset="1" stop-color="#0D0A4B"/>
</linearGradient>
<linearGradient id="paint15_linear_7_369" x1="41.2568" y1="23.0874" x2="40.561" y2="23.8057" gradientUnits="userSpaceOnUse">
<stop stop-color="#1E19B1"/>
<stop offset="0.480769" stop-color="#3E76CC"/>
<stop offset="1" stop-color="#0D0A4B"/>
</linearGradient>
<linearGradient id="paint16_linear_7_369" x1="37.7049" y1="28.6885" x2="36.7301" y2="28.9114" gradientUnits="userSpaceOnUse">
<stop stop-color="#1E19B1"/>
<stop offset="0.480769" stop-color="#3E76CC"/>
<stop offset="1" stop-color="#0D0A4B"/>
</linearGradient>
<linearGradient id="paint17_linear_7_369" x1="50.1568" y1="18.3633" x2="50.1038" y2="18.3498" gradientUnits="userSpaceOnUse">
<stop stop-color="#1E19B1"/>
<stop offset="0.480769" stop-color="#3E76CC"/>
<stop offset="1" stop-color="#0D0A4B"/>
</linearGradient>
<linearGradient id="paint18_linear_7_369" x1="9.28961" y1="23.9071" x2="9.98609" y2="24.6247" gradientUnits="userSpaceOnUse">
<stop stop-color="#1E19B1"/>
<stop offset="0.480769" stop-color="#3E76CC"/>
<stop offset="1" stop-color="#0D0A4B"/>
</linearGradient>
<linearGradient id="paint19_linear_7_369" x1="20.3552" y1="10.3825" x2="21.1632" y2="10.9717" gradientUnits="userSpaceOnUse">
<stop stop-color="#1E19B1"/>
<stop offset="0.480769" stop-color="#3E76CC"/>
<stop offset="1" stop-color="#0D0A4B"/>
</linearGradient>
<linearGradient id="paint20_linear_7_369" x1="21.3622" y1="35.2546" x2="19.5138" y2="39.3424" gradientUnits="userSpaceOnUse">
<stop stop-color="#1E19B1"/>
<stop offset="0.480769" stop-color="#3E76CC"/>
<stop offset="1" stop-color="#0D0A4B"/>
</linearGradient>
<linearGradient id="paint21_linear_7_369" x1="1.77582" y1="21.5785" x2="0.839342" y2="21.6211" gradientUnits="userSpaceOnUse">
<stop stop-color="#1E19B1"/>
<stop offset="0.480769" stop-color="#3E76CC"/>
<stop offset="1" stop-color="#0D0A4B"/>
</linearGradient>
<linearGradient id="paint22_linear_7_369" x1="16.2314" y1="3.74663" x2="16.4094" y2="4.43322" gradientUnits="userSpaceOnUse">
<stop stop-color="#1E19B1"/>
<stop offset="0.480769" stop-color="#3E76CC"/>
<stop offset="1" stop-color="#0D0A4B"/>
</linearGradient>
<linearGradient id="paint23_linear_7_369" x1="44.2623" y1="32.7869" x2="43.3461" y2="32.3861" gradientUnits="userSpaceOnUse">
<stop stop-color="#1E19B1"/>
<stop offset="0.480769" stop-color="#3E76CC"/>
<stop offset="1" stop-color="#0D0A4B"/>
</linearGradient>
<linearGradient id="paint24_linear_7_369" x1="1.55762" y1="0" x2="1.55762" y2="1" gradientUnits="userSpaceOnUse">
<stop stop-color="#1E19B1"/>
<stop offset="0.480769" stop-color="#3E76CC"/>
<stop offset="1" stop-color="#0D0A4B"/>
</linearGradient>
<linearGradient id="paint25_linear_7_369" x1="47.993" y1="36.0289" x2="47.6785" y2="35.5887" gradientUnits="userSpaceOnUse">
<stop stop-color="#1E19B1"/>
<stop offset="0.480769" stop-color="#3E76CC"/>
<stop offset="1" stop-color="#0D0A4B"/>
</linearGradient>
<linearGradient id="paint26_linear_7_369" x1="56.0496" y1="20.56" x2="53.552" y2="20.6324" gradientUnits="userSpaceOnUse">
<stop stop-color="#1E19B1"/>
<stop offset="0.480769" stop-color="#3E76CC"/>
<stop offset="1" stop-color="#0D0A4B"/>
</linearGradient>
<linearGradient id="paint27_linear_7_369" x1="4.70047" y1="10.7413" x2="4.31059" y2="10.316" gradientUnits="userSpaceOnUse">
<stop stop-color="#1E19B1"/>
<stop offset="0.480769" stop-color="#3E76CC"/>
<stop offset="1" stop-color="#0D0A4B"/>
</linearGradient>
<linearGradient id="paint28_linear_7_369" x1="39.9919" y1="3.21772" x2="39.4811" y2="5.19132" gradientUnits="userSpaceOnUse">
<stop stop-color="#1E19B1"/>
<stop offset="0.480769" stop-color="#3E76CC"/>
<stop offset="1" stop-color="#0D0A4B"/>
</linearGradient>
<linearGradient id="paint29_linear_7_369" x1="2.18579" y1="11.7486" x2="2.18579" y2="16.1202" gradientUnits="userSpaceOnUse">
<stop stop-color="#1E19B1"/>
<stop offset="0.480769" stop-color="#3E76CC"/>
<stop offset="1" stop-color="#0D0A4B"/>
</linearGradient>
<linearGradient id="paint30_linear_7_369" x1="7.37705" y1="5.46448" x2="7.37705" y2="9.83606" gradientUnits="userSpaceOnUse">
<stop stop-color="#1E19B1"/>
<stop offset="0.480769" stop-color="#3E76CC"/>
<stop offset="1" stop-color="#0D0A4B"/>
</linearGradient>
<linearGradient id="paint31_linear_7_369" x1="15.0273" y1="16.1202" x2="15.0273" y2="20.4918" gradientUnits="userSpaceOnUse">
<stop stop-color="#1E19B1"/>
<stop offset="0.480769" stop-color="#3E76CC"/>
<stop offset="1" stop-color="#0D0A4B"/>
</linearGradient>
<linearGradient id="paint32_linear_7_369" x1="25.9563" y1="0" x2="25.9563" y2="4.37158" gradientUnits="userSpaceOnUse">
<stop stop-color="#1E19B1"/>
<stop offset="0.480769" stop-color="#3E76CC"/>
<stop offset="1" stop-color="#0D0A4B"/>
</linearGradient>
<linearGradient id="paint33_linear_7_369" x1="52.459" y1="7.37705" x2="52.459" y2="11.7486" gradientUnits="userSpaceOnUse">
<stop stop-color="#1E19B1"/>
<stop offset="0.480769" stop-color="#3E76CC"/>
<stop offset="1" stop-color="#0D0A4B"/>
</linearGradient>
<linearGradient id="paint34_linear_7_369" x1="53.0055" y1="29.235" x2="53.0055" y2="33.6066" gradientUnits="userSpaceOnUse">
<stop stop-color="#1E19B1"/>
<stop offset="0.480769" stop-color="#3E76CC"/>
<stop offset="1" stop-color="#0D0A4B"/>
</linearGradient>
<linearGradient id="paint35_linear_7_369" x1="36.0656" y1="15.0273" x2="36.0656" y2="19.3989" gradientUnits="userSpaceOnUse">
<stop stop-color="#1E19B1"/>
<stop offset="0.480769" stop-color="#3E76CC"/>
<stop offset="1" stop-color="#0D0A4B"/>
</linearGradient>
<linearGradient id="paint36_linear_7_369" x1="41.8033" y1="36.8852" x2="41.8033" y2="41.2568" gradientUnits="userSpaceOnUse">
<stop stop-color="#1E19B1"/>
<stop offset="0.480769" stop-color="#3E76CC"/>
<stop offset="1" stop-color="#0D0A4B"/>
</linearGradient>
<linearGradient id="paint37_linear_7_369" x1="36.0656" y1="45.6284" x2="36.0656" y2="50" gradientUnits="userSpaceOnUse">
<stop stop-color="#1E19B1"/>
<stop offset="0.480769" stop-color="#3E76CC"/>
<stop offset="1" stop-color="#0D0A4B"/>
</linearGradient>
<linearGradient id="paint38_linear_7_369" x1="29.7814" y1="23.4973" x2="29.7814" y2="27.8689" gradientUnits="userSpaceOnUse">
<stop stop-color="#1E19B1"/>
<stop offset="0.480769" stop-color="#3E76CC"/>
<stop offset="1" stop-color="#0D0A4B"/>
</linearGradient>
<linearGradient id="paint39_linear_7_369" x1="3.00546" y1="27.0492" x2="3.00546" y2="31.4208" gradientUnits="userSpaceOnUse">
<stop stop-color="#1E19B1"/>
<stop offset="0.480769" stop-color="#3E76CC"/>
<stop offset="1" stop-color="#0D0A4B"/>
</linearGradient>
<linearGradient id="paint40_linear_7_369" x1="26.5027" y1="12.8415" x2="26.5027" y2="17.2131" gradientUnits="userSpaceOnUse">
<stop stop-color="#1E19B1"/>
<stop offset="0.480769" stop-color="#3E76CC"/>
<stop offset="1" stop-color="#0D0A4B"/>
</linearGradient>
<linearGradient id="paint41_linear_7_369" x1="26.5027" y1="12.8415" x2="26.5027" y2="17.2131" gradientUnits="userSpaceOnUse">
<stop stop-color="#1E19B1"/>
<stop offset="0.480769" stop-color="#3E76CC"/>
<stop offset="1" stop-color="#0D0A4B"/>
</linearGradient>
<linearGradient id="paint42_linear_7_369" x1="44.5355" y1="8.46995" x2="44.5355" y2="12.8415" gradientUnits="userSpaceOnUse">
<stop stop-color="#1E19B1"/>
<stop offset="0.480769" stop-color="#3E76CC"/>
<stop offset="1" stop-color="#0D0A4B"/>
</linearGradient>
<linearGradient id="paint43_linear_7_369" x1="44.5355" y1="8.46995" x2="44.5355" y2="12.8415" gradientUnits="userSpaceOnUse">
<stop stop-color="#1E19B1"/>
<stop offset="0.480769" stop-color="#3E76CC"/>
<stop offset="1" stop-color="#0D0A4B"/>
</linearGradient>
<linearGradient id="paint44_linear_7_369" x1="47.541" y1="24.8634" x2="47.541" y2="29.235" gradientUnits="userSpaceOnUse">
<stop stop-color="#1E19B1"/>
<stop offset="0.480769" stop-color="#3E76CC"/>
<stop offset="1" stop-color="#0D0A4B"/>
</linearGradient>
<linearGradient id="paint45_linear_7_369" x1="47.541" y1="24.8634" x2="47.541" y2="29.235" gradientUnits="userSpaceOnUse">
<stop stop-color="#1E19B1"/>
<stop offset="0.480769" stop-color="#3E76CC"/>
<stop offset="1" stop-color="#0D0A4B"/>
</linearGradient>
</defs>
</svg>
